<svg data-v-423bf9ae="" xmlns="http://www.w3.org/2000/svg" viewBox="0 0 336 90" class="iconLeft"><!----><!----><!----><g data-v-423bf9ae="" id="d9bad5c7-a49d-467c-9a0b-96834a493b7f" fill="black" transform="matrix(6.066734449225566,0,0,6.066734449225566,125.42519102913731,-11.147626559532334)"><path d="M2.63 14.01L2.63 14.01Q2.55 14.01 2.48 13.96L2.48 13.96L2.48 13.96Q2.41 13.90 2.41 13.82L2.41 13.82L2.41 13.82Q2.41 13.73 2.48 13.68L2.48 13.68L2.48 13.68Q2.55 13.62 2.63 13.62L2.63 13.62L3.25 13.62L3.25 13.62Q3.40 13.62 3.51 13.50L3.51 13.50L3.51 13.50Q3.63 13.38 3.63 13.24L3.63 13.24L3.63 4.82L3.63 4.82Q2.91 4.82 2.45 4.91L2.45 4.91L2.45 4.91Q1.99 5.00 1.59 5.33L1.59 5.33L1.59 5.33Q1.19 5.66 0.90 6.33L0.90 6.33L0.64 6.82L0.64 6.82Q0.63 6.85 0.60 6.91L0.60 6.91L0.60 6.91Q0.57 6.97 0.50 6.97L0.50 6.97L0.50 6.97Q0.43 6.97 0.38 6.93L0.38 6.93L0.38 6.93Q0.32 6.89 0.32 6.82L0.32 6.82L0.46 4.66L0.46 4.66Q0.46 4.55 0.54 4.48L0.54 4.48L0.54 4.48Q0.62 4.41 0.71 4.41L0.71 4.41L7.90 4.41L7.90 4.41Q8.01 4.41 8.09 4.49L8.09 4.49L8.09 4.49Q8.16 4.56 8.18 4.66L8.18 4.66L8.26 6.82L8.26 6.82Q8.26 6.89 8.22 6.93L8.22 6.93L8.22 6.93Q8.19 6.97 8.13 6.97L8.13 6.97L8.13 6.97Q8.06 6.97 7.98 6.82L7.98 6.82L7.73 6.33L7.73 6.33Q7.45 5.67 7.04 5.34L7.04 5.34L7.04 5.34Q6.64 5.01 6.17 4.91L6.17 4.91L6.17 4.91Q5.70 4.82 5.03 4.82L5.03 4.82L5.03 13.24L5.03 13.24Q5.03 13.40 5.13 13.51L5.13 13.51L5.13 13.51Q5.24 13.62 5.38 13.62L5.38 13.62L6.01 13.62L6.01 13.62Q6.08 13.62 6.14 13.68L6.14 13.68L6.14 13.68Q6.20 13.73 6.20 13.82L6.20 13.82L6.20 13.82Q6.20 13.90 6.14 13.96L6.14 13.96L6.14 13.96Q6.08 14.01 6.01 14.01L6.01 14.01L2.63 14.01ZM8.22 14.01L8.22 14.01Q8.16 14.01 8.14 13.97L8.14 13.97L8.14 13.97Q8.12 13.93 8.12 13.85L8.12 13.85L8.12 13.85Q8.12 13.78 8.15 13.76L8.15 13.76L8.15 13.76Q8.18 13.73 8.26 13.73L8.26 13.73L8.75 13.73L8.75 13.73Q8.88 13.73 8.95 13.64L8.95 13.64L8.95 13.64Q9.02 13.54 9.02 13.41L9.02 13.41L9.02 9.00L9.02 9.00Q9.02 8.85 8.94 8.77L8.94 8.77L8.94 8.77Q8.86 8.69 8.75 8.69L8.75 8.69L8.12 8.69L8.12 8.69Q7.95 8.69 7.95 8.54L7.95 8.54L7.95 8.54Q7.95 8.36 8.13 8.36L8.13 8.36L9.83 8.36L9.83 8.36Q10.05 8.36 10.05 8.58L10.05 8.58L10.05 9.72L10.05 9.72Q10.05 9.63 10.22 9.26L10.22 9.26L10.22 9.26Q10.39 8.89 10.75 8.56L10.75 8.56L10.75 8.56Q11.12 8.23 11.70 8.23L11.70 8.23L11.70 8.23Q12.22 8.23 12.46 8.48L12.46 8.48L12.46 8.48Q12.70 8.74 12.70 9.09L12.70 9.09L12.70 9.09Q12.70 9.38 12.53 9.60L12.53 9.60L12.53 9.60Q12.36 9.81 12.10 9.81L12.10 9.81L12.10 9.81Q11.84 9.81 11.68 9.65L11.68 9.65L11.68 9.65Q11.52 9.49 11.52 9.24L11.52 9.24L11.52 9.24Q11.52 8.99 11.66 8.83L11.66 8.83L11.66 8.83Q11.73 8.76 11.73 8.71L11.73 8.71L11.73 8.71Q11.73 8.64 11.65 8.59L11.65 8.59L11.65 8.59Q11.56 8.54 11.42 8.54L11.42 8.54L11.42 8.54Q11.12 8.54 10.80 8.81L10.80 8.81L10.80 8.81Q10.49 9.09 10.27 9.63L10.27 9.63L10.27 9.63Q10.05 10.16 10.05 10.91L10.05 10.91L10.05 13.51L10.05 13.51Q10.05 13.64 10.08 13.67L10.08 13.67L10.08 13.67Q10.11 13.71 10.21 13.71L10.21 13.71L10.92 13.71L10.92 13.71Q10.99 13.71 11.05 13.74L11.05 13.74L11.05 13.74Q11.10 13.78 11.10 13.85L11.10 13.85L11.10 13.85Q11.10 14.01 10.92 14.01L10.92 14.01L8.22 14.01ZM15.05 14.20L15.05 14.20Q14.25 14.20 13.84 13.75L13.84 13.75L13.84 13.75Q13.43 13.30 13.43 12.67L13.43 12.67L13.43 12.67Q13.43 12.00 13.91 11.56L13.91 11.56L13.91 11.56Q14.39 11.13 15.13 10.93L15.13 10.93L15.13 10.93Q15.85 10.71 16.66 10.71L16.66 10.71L16.86 10.72L16.86 10.46L16.86 10.46Q16.86 9.88 16.79 9.49L16.79 9.49L16.79 9.49Q16.72 9.10 16.44 8.83L16.44 8.83L16.44 8.83Q16.16 8.55 15.58 8.55L15.58 8.55L15.58 8.55Q15.16 8.55 15.04 8.67L15.04 8.67L15.04 8.67Q14.91 8.78 14.91 8.90L14.91 8.90L14.91 8.90Q14.91 8.97 14.98 9.13L14.98 9.13L14.98 9.13Q15.05 9.28 15.05 9.35L15.05 9.35L15.05 9.35Q15.05 9.66 14.88 9.81L14.88 9.81L14.88 9.81Q14.73 10.00 14.45 10.00L14.45 10.00L14.45 10.00Q14.20 10.00 14 9.80L14 9.80L14 9.80Q13.90 9.69 13.86 9.59L13.86 9.59L13.86 9.59Q13.82 9.49 13.82 9.37L13.82 9.37L13.82 9.37Q13.82 9.10 14 8.88L14 8.88L14 8.88Q14.29 8.54 14.78 8.43L14.78 8.43L14.78 8.43Q15.26 8.32 15.69 8.32L15.69 8.32L15.69 8.32Q16.37 8.32 16.81 8.47L16.81 8.47L16.81 8.47Q17.26 8.62 17.53 8.96L17.53 8.96L17.53 8.96Q17.75 9.25 17.80 9.59L17.80 9.59L17.80 9.59Q17.85 9.93 17.85 10.72L17.85 10.72L17.85 12.89L17.85 12.89Q17.85 13.66 18.26 13.66L18.26 13.66L18.26 13.66Q18.48 13.66 18.70 13.44L18.70 13.44L18.70 13.44Q18.73 13.43 18.75 13.41L18.75 13.41L18.75 13.41Q18.76 13.38 18.79 13.38L18.79 13.38L18.79 13.38Q18.87 13.38 18.87 13.48L18.87 13.48L18.87 13.48Q18.87 13.68 18.56 13.91L18.56 13.91L18.56 13.91Q18.24 14.14 17.95 14.14L17.95 14.14L17.95 14.14Q17.58 14.14 17.31 13.87L17.31 13.87L17.31 13.87Q17.04 13.59 16.90 13.19L16.90 13.19L16.90 13.19Q16.86 13.19 16.84 13.17L16.84 13.17L16.84 13.17Q16.81 13.16 16.80 13.19L16.80 13.19L16.80 13.19Q16.20 14.20 15.05 14.20L15.05 14.20ZM15.46 13.71L15.46 13.71Q15.83 13.71 16.16 13.51L16.16 13.51L16.16 13.51Q16.48 13.31 16.67 13.03L16.67 13.03L16.67 13.03Q16.86 12.75 16.86 12.52L16.86 12.52L16.86 10.99L16.86 10.99Q16.45 10.99 15.99 11.05L15.99 11.05L15.99 11.05Q15.53 11.12 15.22 11.27L15.22 11.27L15.22 11.27Q14.74 11.51 14.59 11.91L14.59 11.91L14.59 11.91Q14.45 12.31 14.45 12.63L14.45 12.63L14.45 12.63Q14.45 12.99 14.67 13.35L14.67 13.35L14.67 13.35Q14.90 13.71 15.46 13.71L15.46 13.71ZM23.03 14.20L23.03 14.20Q22.53 14.20 22.15 14.08L22.15 14.08L22.15 14.08Q21.78 13.96 21.31 13.73L21.31 13.73L21.31 13.73Q21.13 13.64 20.96 13.57L20.96 13.57L20.96 13.57Q20.80 13.51 20.68 13.51L20.68 13.51L20.68 13.51Q20.52 13.51 20.38 13.60L20.38 13.60L20.38 13.60Q20.23 13.69 20.11 13.79L20.11 13.79L20.11 13.79Q19.99 13.89 19.95 13.92L19.95 13.92L19.95 13.92Q19.91 13.94 19.82 13.94L19.82 13.94L19.82 13.94Q19.73 13.94 19.66 13.87L19.66 13.87L19.66 13.87Q19.59 13.80 19.59 13.71L19.59 13.71L19.59 11.35L19.59 11.35Q19.59 11.20 19.73 11.20L19.73 11.20L19.73 11.20Q19.85 11.20 19.92 11.35L19.92 11.35L19.92 11.35Q20.45 12.53 21.19 13.19L21.19 13.19L21.19 13.19Q21.92 13.85 23.03 13.85L23.03 13.85L23.03 13.85Q24.11 13.85 24.58 13.29L24.58 13.29L24.58 13.29Q25.05 12.74 25.16 12.15L25.16 12.15L25.16 12.15Q25.19 12.04 25.19 11.86L25.19 11.86L25.19 11.86Q25.19 10.99 24.41 10.52L24.41 10.52L24.41 10.52Q23.63 10.05 22.40 9.72L22.40 9.72L22.40 9.72Q21.74 9.52 21.17 9.25L21.17 9.25L21.17 9.25Q20.61 8.99 20.10 8.41L20.10 8.41L20.10 8.41Q19.59 7.83 19.59 6.93L19.59 6.93L19.59 6.93Q19.59 6.10 19.95 5.51L19.95 5.51L19.95 5.51Q20.31 4.91 20.93 4.61L20.93 4.61L20.93 4.61Q21.55 4.31 22.30 4.31L22.30 4.31L22.30 4.31Q23.10 4.31 24.01 4.80L24.01 4.80L24.01 4.80Q24.12 4.84 24.30 4.84L24.30 4.84L24.30 4.84Q24.61 4.84 24.79 4.66L24.79 4.66L24.79 4.66Q24.88 4.59 24.94 4.56L24.94 4.56L24.94 4.56Q25.00 4.52 25.07 4.52L25.07 4.52L25.07 4.52Q25.26 4.52 25.26 4.72L25.26 4.72L25.30 6.78L25.30 6.78Q25.30 7.00 25.16 7.00L25.16 7.00L25.16 7.00Q25.10 7.00 25.05 6.94L25.05 6.94L25.05 6.94Q25.00 6.87 24.93 6.75L24.93 6.75L24.93 6.75Q24.26 5.54 23.72 5.11L23.72 5.11L23.72 5.11Q23.11 4.62 22.36 4.62L22.36 4.62L22.36 4.62Q21.50 4.62 20.97 5.09L20.97 5.09L20.97 5.09Q20.44 5.56 20.44 6.29L20.44 6.29L20.44 6.29Q20.44 6.85 20.75 7.20L20.75 7.20L20.75 7.20Q21.06 7.55 21.55 7.75L21.55 7.75L21.55 7.75Q22.05 7.95 22.83 8.15L22.83 8.15L22.83 8.15Q23.65 8.37 24.27 8.65L24.27 8.65L24.27 8.65Q24.89 8.92 25.39 9.53L25.39 9.53L25.39 9.53Q25.89 10.15 25.89 11.17L25.89 11.17L25.89 11.17Q25.89 11.98 25.54 12.68L25.54 12.68L25.54 12.68Q25.19 13.37 24.53 13.78L24.53 13.78L24.53 13.78Q23.88 14.20 23.03 14.20L23.03 14.20ZM28.99 14.01L28.99 14.01Q28.91 14.01 28.84 13.96L28.84 13.96L28.84 13.96Q28.77 13.90 28.77 13.82L28.77 13.82L28.77 13.82Q28.77 13.73 28.84 13.68L28.84 13.68L28.84 13.68Q28.91 13.62 28.99 13.62L28.99 13.62L29.61 13.62L29.61 13.62Q29.76 13.62 29.88 13.50L29.88 13.50L29.88 13.50Q29.99 13.38 29.99 13.24L29.99 13.24L29.99 4.82L29.99 4.82Q29.27 4.82 28.81 4.91L28.81 4.91L28.81 4.91Q28.35 5.00 27.95 5.33L27.95 5.33L27.95 5.33Q27.55 5.66 27.26 6.33L27.26 6.33L27.01 6.82L27.01 6.82Q26.99 6.85 26.96 6.91L26.96 6.91L26.96 6.91Q26.94 6.97 26.87 6.97L26.87 6.97L26.87 6.97Q26.80 6.97 26.74 6.93L26.74 6.93L26.74 6.93Q26.68 6.89 26.68 6.82L26.68 6.82L26.82 4.66L26.82 4.66Q26.82 4.55 26.90 4.48L26.90 4.48L26.90 4.48Q26.98 4.41 27.08 4.41L27.08 4.41L34.26 4.41L34.26 4.41Q34.37 4.41 34.45 4.49L34.45 4.49L34.45 4.49Q34.52 4.56 34.54 4.66L34.54 4.66L34.62 6.82L34.62 6.82Q34.62 6.89 34.59 6.93L34.59 6.93L34.59 6.93Q34.55 6.97 34.50 6.97L34.50 6.97L34.50 6.97Q34.43 6.97 34.34 6.82L34.34 6.82L34.09 6.33L34.09 6.33Q33.81 5.67 33.40 5.34L33.40 5.34L33.40 5.34Q33.00 5.01 32.53 4.91L32.53 4.91L32.53 4.91Q32.06 4.82 31.39 4.82L31.39 4.82L31.39 13.24L31.39 13.24Q31.39 13.40 31.49 13.51L31.49 13.51L31.49 13.51Q31.60 13.62 31.74 13.62L31.74 13.62L32.37 13.62L32.37 13.62Q32.44 13.62 32.50 13.68L32.50 13.68L32.50 13.68Q32.56 13.73 32.56 13.82L32.56 13.82L32.56 13.82Q32.56 13.90 32.50 13.96L32.50 13.96L32.50 13.96Q32.44 14.01 32.37 14.01L32.37 14.01L28.99 14.01Z"></path></g><!----><g data-v-423bf9ae="" id="0239c14a-558e-44e8-ad43-5194c9adb321" transform="matrix(1.0747294700039138,0,0,1.0747294700039138,0.30932686575217616,-16.140222352524177)" stroke="none" fill="black"><path d="M93.473 19.808l-.121-2.229 1.252-.06c2.697-.145 4.396-.225 5.396-.253v-2.008s-87.968 3.084-87.968 18.785c0 15.699 33.588 33.737 33.433 42.737C45.249 89.027 11.313 95 .099 99h44.515c1.339-1 2.815-1.641 4.516-2.619l.966-.463 1.113 1.98-.968.396c-.514.295-1.002.706-1.476.706h31.332s15.591-8.984 15.233-22.398c-.448-16.711-55.191-33.709-54.953-42.424C40.629 25.006 100 21.984 100 21.984V19.5c-1 .032-2.707.109-5.276.248l-1.251.06zM28.988 42.236l-.646-.91c-2.03-2.86-3.017-5.472-3.017-7.985 0-1.406.7-2.729 2.082-3.934l.841-.734 1.467 1.682-.841.733c-.874.762-1.316 1.52-1.316 2.252 0 2.006.876 4.258 2.605 6.694l.646.91-1.821 1.292zm38.408 45.788c-2.809 2.599-6.474 4.67-9.985 6.57l-.982.53-1.061-1.964.981-.53c3.388-1.831 6.913-3.822 9.532-6.245l.818-.758 1.516 1.638-.819.759zm-.757-19.108l.845.729c3.519 3.043 5.088 5.313 5.088 7.36a14.9 14.9 0 0 1-.503 3.689l-.292 1.077-2.154-.586.293-1.077c.262-.965.404-2 .423-3.077.001-.911-.748-2.613-4.314-5.698l-.844-.729 1.458-1.688zM50.316 57.262l3.842 2.643a445.654 445.654 0 0 1 6.736 4.675l.908.648-1.297 1.817-.908-.647c-2.09-1.491-4.33-3.026-6.701-4.652L49.05 59.1l1.266-1.838zm-5.759-4.087l.901.66-1.318 1.801-.901-.658c-3.781-2.765-6.799-5.194-9.227-7.426l-.822-.755 1.511-1.644.821.755c2.366 2.175 5.321 4.552 9.035 7.267zm2.456-28.31c-4.467.867-8.243 1.812-11.223 2.809l-1.059.354-.708-2.116 1.059-.354c3.072-1.028 6.943-1.998 11.506-2.884l1.095-.212.425 2.191-1.095.212zm19.624-2.866c-4.145.461-8.042.964-11.582 1.495l-1.104.166-.332-2.207 1.104-.166a308.937 308.937 0 0 1 11.667-1.506l1.109-.124.246 2.219-1.108.123zm19.804-1.751c-4 .276-7.924.588-11.664.93l-1.111.102-.202-2.223 1.111-.102c3.756-.343 7.696-.657 11.713-.934l1.112-.077.154 2.227-1.113.077z"></path></g><!----></svg>