<svg data-v-423bf9ae="" xmlns="http://www.w3.org/2000/svg" viewBox="0 0 71.57769988826766 60" class="icon"><!----><!----><!----><!----><g data-v-423bf9ae="" id="8b67909a-3ef3-4295-aef5-1913eb91e37f" transform="matrix(0.7164863133359426,0,0,0.7164863133359426,-0.07093223367821366,-10.93214912002589)" stroke="none" fill="white"><path d="M93.473 19.808l-.121-2.229 1.252-.06c2.697-.145 4.396-.225 5.396-.253v-2.008s-87.968 3.084-87.968 18.785c0 15.699 33.588 33.737 33.433 42.737C45.249 89.027 11.313 95 .099 99h44.515c1.339-1 2.815-1.641 4.516-2.619l.966-.463 1.113 1.98-.968.396c-.514.295-1.002.706-1.476.706h31.332s15.591-8.984 15.233-22.398c-.448-16.711-55.191-33.709-54.953-42.424C40.629 25.006 100 21.984 100 21.984V19.5c-1 .032-2.707.109-5.276.248l-1.251.06zM28.988 42.236l-.646-.91c-2.03-2.86-3.017-5.472-3.017-7.985 0-1.406.7-2.729 2.082-3.934l.841-.734 1.467 1.682-.841.733c-.874.762-1.316 1.52-1.316 2.252 0 2.006.876 4.258 2.605 6.694l.646.91-1.821 1.292zm38.408 45.788c-2.809 2.599-6.474 4.67-9.985 6.57l-.982.53-1.061-1.964.981-.53c3.388-1.831 6.913-3.822 9.532-6.245l.818-.758 1.516 1.638-.819.759zm-.757-19.108l.845.729c3.519 3.043 5.088 5.313 5.088 7.36a14.9 14.9 0 0 1-.503 3.689l-.292 1.077-2.154-.586.293-1.077c.262-.965.404-2 .423-3.077.001-.911-.748-2.613-4.314-5.698l-.844-.729 1.458-1.688zM50.316 57.262l3.842 2.643a445.654 445.654 0 0 1 6.736 4.675l.908.648-1.297 1.817-.908-.647c-2.09-1.491-4.33-3.026-6.701-4.652L49.05 59.1l1.266-1.838zm-5.759-4.087l.901.66-1.318 1.801-.901-.658c-3.781-2.765-6.799-5.194-9.227-7.426l-.822-.755 1.511-1.644.821.755c2.366 2.175 5.321 4.552 9.035 7.267zm2.456-28.31c-4.467.867-8.243 1.812-11.223 2.809l-1.059.354-.708-2.116 1.059-.354c3.072-1.028 6.943-1.998 11.506-2.884l1.095-.212.425 2.191-1.095.212zm19.624-2.866c-4.145.461-8.042.964-11.582 1.495l-1.104.166-.332-2.207 1.104-.166a308.937 308.937 0 0 1 11.667-1.506l1.109-.124.246 2.219-1.108.123zm19.804-1.751c-4 .276-7.924.588-11.664.93l-1.111.102-.202-2.223 1.111-.102c3.756-.343 7.696-.657 11.713-.934l1.112-.077.154 2.227-1.113.077z"></path></g><!----></svg>